<?xml version="1.0" encoding="UTF-8" standalone="no"?>
<!-- Created with Inkscape (http://www.inkscape.org/) -->

<svg
   xmlns:dc="http://purl.org/dc/elements/1.1/"
   xmlns:cc="http://creativecommons.org/ns#"
   xmlns:rdf="http://www.w3.org/1999/02/22-rdf-syntax-ns#"
   xmlns:svg="http://www.w3.org/2000/svg"
   xmlns="http://www.w3.org/2000/svg"
   xmlns:sodipodi="http://sodipodi.sourceforge.net/DTD/sodipodi-0.dtd"
   xmlns:inkscape="http://www.inkscape.org/namespaces/inkscape"
   width="54"
   height="54"
   viewBox="0 0 14.2875 14.287499"
   id="svg4140"
   version="1.1"
   inkscape:version="0.91+devel r13930"
   sodipodi:docname="cut.svg">
  <defs
     id="defs4142" />
  <sodipodi:namedview
     id="base"
     pagecolor="#ffffff"
     bordercolor="#666666"
     borderopacity="1.0"
     inkscape:pageopacity="0.0"
     inkscape:pageshadow="2"
     inkscape:zoom="9.8999261"
     inkscape:cx="29.593251"
     inkscape:cy="23.709956"
     inkscape:document-units="mm"
     inkscape:current-layer="layer1"
     showgrid="false"
     inkscape:window-width="1680"
     inkscape:window-height="966"
     inkscape:window-x="-4"
     inkscape:window-y="32"
     inkscape:window-maximized="1"
     fit-margin-top="0"
     fit-margin-left="0"
     fit-margin-right="0"
     fit-margin-bottom="0"
     units="px" />
  <metadata
     id="metadata4145">
    <rdf:RDF>
      <cc:Work
         rdf:about="">
        <dc:format>image/svg+xml</dc:format>
        <dc:type
           rdf:resource="http://purl.org/dc/dcmitype/StillImage" />
        <dc:title></dc:title>
      </cc:Work>
    </rdf:RDF>
  </metadata>
  <g
     inkscape:label="Ebene 1"
     inkscape:groupmode="layer"
     id="layer1"
     transform="translate(-49.052734,-230.15195)">
    <rect
       style="opacity:1;fill:#ffffff;fill-opacity:1;fill-rule:nonzero;stroke:none;stroke-width:0.11535833;stroke-linecap:round;stroke-linejoin:miter;stroke-miterlimit:4;stroke-dasharray:none;stroke-dashoffset:0;stroke-opacity:1"
       id="rect4879"
       width="2.7912087"
       height="1.4886447"
       x="119.33968"
       y="161.09915" />
    <path
       style="opacity:1;fill:#1a1a1a;fill-opacity:1;fill-rule:nonzero;stroke:none;stroke-width:0.11535832;stroke-linecap:round;stroke-linejoin:miter;stroke-miterlimit:4;stroke-dasharray:none;stroke-dashoffset:0;stroke-opacity:1"
       d="m 60.436525,231.7398 c -0.04209,-7.4e-4 -0.08438,5e-4 -0.126724,0.004 -0.896593,0.0218 -1.407638,1.05107 -1.132692,1.81537 l -0.608994,0.5586 -0.468992,-0.46149 -0.953643,-0.91821 -0.790202,-0.5169 -0.640264,-0.14967 -0.490443,0.0885 2.135711,2.14929 -0.01316,0 0.486354,0.48081 -0.650536,0.64957 0,0.007 -1.937933,1.95027 0.490441,0.0885 0.640323,-0.14965 0.790144,-0.51691 0.01703,-0.0163 0,1.35629 -4.393607,0 0,-2.94509 3.998393,0 0.419616,-0.41899 -0.481702,-0.48563 -6.085411,0 0,8.54279 8.582853,0 0,-4.95522 c -0.577258,-0.4362 -0.70192,-1.19305 -0.501225,-1.85154 l -0.122527,0.005 -0.549121,0.57714 -0.31304,0.29818 -0.313095,0.27897 -0.240851,0.17311 0,-0.57516 0.936335,-0.90155 0.449239,-0.44206 0.641855,0.58878 c -0.206448,0.51634 -0.131102,1.15108 0.349075,1.51466 0.834027,0.78823 2.382375,-0.0558 2.173894,-1.18374 -0.07858,-0.64209 -0.665734,-1.14511 -1.297092,-1.15729 -0.04209,-7.4e-4 -0.08438,4.9e-4 -0.126724,0.004 -0.201344,0.005 -0.383126,0.0609 -0.541063,0.15295 l -0.54566,-0.57289 0,-0.0323 0.52347,-0.5496 c 0.857449,0.52425 2.180813,-0.2785 1.987069,-1.32666 -0.07858,-0.64209 -0.665734,-1.14511 -1.297092,-1.15728 z m 0.02272,0.50201 a 0.82422593,0.82299069 0 0 1 0.503828,0.19674 0.82422593,0.82299069 0 0 1 0.09222,1.15905 l -0.0044,0.005 a 0.82422593,0.82299069 0 0 1 -1.161347,0.0851 0.82422593,0.82299069 0 0 1 -0.0875,-1.15939 0.82422593,0.82299069 0 0 1 0.657117,-0.28649 z m -3.285656,2.96685 -0.21798,0.005 0.21798,0 0,-0.005 z m -5.773846,0.18225 0.735662,0 0,0.73456 -0.735662,0 0,-0.73456 z m 9.059502,0.33246 a 0.82422593,0.82299069 0 0 1 0.503828,0.19674 0.82422593,0.82299069 0 0 1 0.09222,1.15905 l -0.0044,0.005 a 0.82422593,0.82299069 0 0 1 -1.161347,0.0851 0.82422593,0.82299069 0 0 1 -0.0875,-1.15938 0.82422593,0.82299069 0 0 1 0.657117,-0.28651 z m -2.658558,1.55781 0.735665,0 0,0.73461 -0.735665,0 0,-0.73461 z m -6.400944,5e-4 0.735662,0 0,0.73455 -0.735662,0 0,-0.73455 z m 1.389604,1.74797 4.393607,0 0,2.94509 -4.393607,0 0,-2.94509 z m 5.01134,0.14234 0.735665,0 0,0.73456 -0.735665,0 0,-0.73456 z m -6.400944,4.9e-4 0.735662,0 0,0.73456 -0.735662,0 0,-0.73456 z m 6.400944,1.89032 0.735665,0 0,0.73456 -0.735665,0 0,-0.73456 z m -6.413318,0.007 0.735665,0 0,0.73458 -0.735665,0 0,-0.73458 z"
       id="rect4796"
       inkscape:connector-curvature="0" />
  </g>
</svg>
