<?xml version="1.0" encoding="UTF-8" standalone="no"?>
<svg
   xmlns:dc="http://purl.org/dc/elements/1.1/"
   xmlns:cc="http://creativecommons.org/ns#"
   xmlns:rdf="http://www.w3.org/1999/02/22-rdf-syntax-ns#"
   xmlns:svg="http://www.w3.org/2000/svg"
   xmlns="http://www.w3.org/2000/svg"
   xmlns:sodipodi="http://sodipodi.sourceforge.net/DTD/sodipodi-0.dtd"
   xmlns:inkscape="http://www.inkscape.org/namespaces/inkscape"
   version="1.1"
   viewBox="0 0 23.999884 24.000143"
   enable-background="new 0 0 512 512"
   id="svg2"
   inkscape:version="0.91 r13725"
   sodipodi:docname="remoteOff.svg"
   width="23.999884"
   height="24.000143">
  <metadata
     id="metadata12">
    <rdf:RDF>
      <cc:Work
         rdf:about="">
        <dc:format>image/svg+xml</dc:format>
        <dc:type
           rdf:resource="http://purl.org/dc/dcmitype/StillImage" />
        <dc:title></dc:title>
      </cc:Work>
    </rdf:RDF>
  </metadata>
  <defs
     id="defs10" />
  <sodipodi:namedview
     pagecolor="#ffffff"
     bordercolor="#666666"
     borderopacity="1"
     objecttolerance="10"
     gridtolerance="10"
     guidetolerance="10"
     inkscape:pageopacity="0"
     inkscape:pageshadow="2"
     inkscape:window-width="1680"
     inkscape:window-height="961"
     id="namedview8"
     showgrid="false"
     fit-margin-top="0"
     fit-margin-left="0"
     fit-margin-right="0"
     fit-margin-bottom="0"
     borderlayer="true"
     inkscape:showpageshadow="false"
     inkscape:zoom="21.499999"
     inkscape:cx="-5.40868"
     inkscape:cy="6.2886749"
     inkscape:window-x="0"
     inkscape:window-y="30"
     inkscape:window-maximized="1"
     inkscape:current-layer="svg2" />
  <g
     id="g4"
     style="fill:#3c3c3c;fill-opacity:1;stroke:none;stroke-width:1.36083329;stroke-miterlimit:4;stroke-dasharray:none;stroke-opacity:1"
     transform="matrix(0.0486293,0,0,0.04864953,-0.44915773,-0.45907448)">
    <path
       d="m 480.6,315.2 -52.1,0 0,-38.7 52.1,0 c 11.3,0 20.4,-9.1 20.4,-20.4 0,-11.3 -9.1,-20.4 -20.4,-20.4 l -204.2,0 0,-38.7 52.1,0 c 11.3,0 20.4,-9.1 20.4,-20.4 l 0,-145 c 0,-11.3 -9.1,-20.4 -20.4,-20.4 l -145,0 c -11.3,0 -20.4,9.1 -20.4,20.4 l 0,145 c 0,11.3 9.1,20.4 20.4,20.4 l 52.1,0 0,38.7 -204.2,0 c -11.3,0 -20.4,9.1 -20.4,20.4 0,11.3 9.1,20.4 20.4,20.4 l 52.1,0 0,37.6 -52.1,0 c -11.3,0 -20.4,9.1 -20.4,20.4 l 0,145 c 0,11.3 9.1,20.4 20.4,20.4 l 145.1,0 c 11.3,0 20.4,-9.1 20.4,-20.4 l 0,-145 c 0,-11.3 -9.1,-20.4 -20.4,-20.4 l -52.1,0 0,-37.6 263.2,0 0,38.7 -52.1,0 c -11.3,0 -20.4,9.1 -20.4,20.4 l 0,145 c 0,11.3 9.1,20.4 20.4,20.4 l 145.1,0 c 11.3,0 20.4,-9.1 20.4,-20.4 l 0,-145 c 0,-11.3 -9.1,-20.4 -20.4,-20.4 z M 203.9,51.8 l 104.3,0 0,104.2 -104.3,0 0,-104.2 z m -47.8,407.3 -104.3,0 0,-104.2 104.3,0 0,104.2 z m 304.1,1.1 -104.3,0 0,-104.2 104.3,0 0,104.2 z"
       id="path6"
       style="fill:#3c3c3c;fill-opacity:1;stroke:none;stroke-width:1.36083329;stroke-miterlimit:4;stroke-dasharray:none;stroke-opacity:1"
       inkscape:connector-curvature="0" />
  </g>
</svg>
