<?xml version="1.0" encoding="UTF-8" standalone="no"?>
<svg
   xmlns:dc="http://purl.org/dc/elements/1.1/"
   xmlns:cc="http://creativecommons.org/ns#"
   xmlns:rdf="http://www.w3.org/1999/02/22-rdf-syntax-ns#"
   xmlns:svg="http://www.w3.org/2000/svg"
   xmlns="http://www.w3.org/2000/svg"
   xmlns:xlink="http://www.w3.org/1999/xlink"
   xmlns:sodipodi="http://sodipodi.sourceforge.net/DTD/sodipodi-0.dtd"
   xmlns:inkscape="http://www.inkscape.org/namespaces/inkscape"
   version="1.1"
   viewBox="0 0 23.999884 24.000143"
   enable-background="new 0 0 512 512"
   id="svg2"
   inkscape:version="0.92.2 (5c3e80d, 2017-08-06)"
   sodipodi:docname="remoteSwitchTimer.svg"
   width="23.999884"
   height="24.000143">
  <metadata
     id="metadata12">
    <rdf:RDF>
      <cc:Work
         rdf:about="">
        <dc:format>image/svg+xml</dc:format>
        <dc:type
           rdf:resource="http://purl.org/dc/dcmitype/StillImage" />
        <dc:title />
      </cc:Work>
    </rdf:RDF>
  </metadata>
  <defs
     id="defs10">
    <linearGradient
       inkscape:collect="always"
       id="linearGradient821">
      <stop
         style="stop-color:#001eff;stop-opacity:1;"
         offset="0"
         id="stop817" />
      <stop
         style="stop-color:#000219;stop-opacity:1"
         offset="1"
         id="stop819" />
    </linearGradient>
    <radialGradient
       inkscape:collect="always"
       xlink:href="#linearGradient821"
       id="radialGradient817"
       gradientUnits="userSpaceOnUse"
       gradientTransform="matrix(0.02407107,-3.5223485,3.646761,0.02490054,-684.09774,1151.4441)"
       cx="256"
       cy="256.10001"
       fx="256"
       fy="256.10001"
       r="245" />
  </defs>
  <sodipodi:namedview
     pagecolor="#ffffff"
     bordercolor="#666666"
     borderopacity="1"
     objecttolerance="10"
     gridtolerance="10"
     guidetolerance="10"
     inkscape:pageopacity="0"
     inkscape:pageshadow="2"
     inkscape:window-width="1280"
     inkscape:window-height="711"
     id="namedview8"
     showgrid="false"
     fit-margin-top="0"
     fit-margin-left="0"
     fit-margin-right="0"
     fit-margin-bottom="0"
     borderlayer="true"
     inkscape:showpageshadow="false"
     inkscape:zoom="5.375"
     inkscape:cx="11.85707"
     inkscape:cy="17.529469"
     inkscape:window-x="0"
     inkscape:window-y="32"
     inkscape:window-maximized="1"
     inkscape:current-layer="svg2" />
  <g
     id="g4"
     style="fill:url(#radialGradient817);fill-opacity:1;stroke:none;stroke-width:0.61678375;stroke-miterlimit:4;stroke-dasharray:none;stroke-opacity:1;opacity:0.98"
     transform="matrix(0.0486293,0,0,0.04864953,-0.44915773,-0.45907448)">
    <path
       d="m 480.6,315.2 -52.1,0 0,-38.7 52.1,0 c 11.3,0 20.4,-9.1 20.4,-20.4 0,-11.3 -9.1,-20.4 -20.4,-20.4 l -204.2,0 0,-38.7 52.1,0 c 11.3,0 20.4,-9.1 20.4,-20.4 l 0,-145 c 0,-11.3 -9.1,-20.4 -20.4,-20.4 l -145,0 c -11.3,0 -20.4,9.1 -20.4,20.4 l 0,145 c 0,11.3 9.1,20.4 20.4,20.4 l 52.1,0 0,38.7 -204.2,0 c -11.3,0 -20.4,9.1 -20.4,20.4 0,11.3 9.1,20.4 20.4,20.4 l 52.1,0 0,37.6 -52.1,0 c -11.3,0 -20.4,9.1 -20.4,20.4 l 0,145 c 0,11.3 9.1,20.4 20.4,20.4 l 145.1,0 c 11.3,0 20.4,-9.1 20.4,-20.4 l 0,-145 c 0,-11.3 -9.1,-20.4 -20.4,-20.4 l -52.1,0 0,-37.6 263.2,0 0,38.7 -52.1,0 c -11.3,0 -20.4,9.1 -20.4,20.4 l 0,145 c 0,11.3 9.1,20.4 20.4,20.4 l 145.1,0 c 11.3,0 20.4,-9.1 20.4,-20.4 l 0,-145 c 0,-11.3 -9.1,-20.4 -20.4,-20.4 z M 203.9,51.8 l 104.3,0 0,104.2 -104.3,0 0,-104.2 z m -47.8,407.3 -104.3,0 0,-104.2 104.3,0 0,104.2 z m 304.1,1.1 -104.3,0 0,-104.2 104.3,0 0,104.2 z"
       id="path6"
       style="fill:url(#radialGradient817);fill-opacity:1;stroke:none;stroke-width:0.61678375;stroke-miterlimit:4;stroke-dasharray:none;stroke-opacity:1"
       inkscape:connector-curvature="0" />
  </g>
</svg>
